<svg id="visual" viewBox="0 0 960 300" width="960" height="300" xmlns="http://www.w3.org/2000/svg" xmlns:xlink="http://www.w3.org/1999/xlink" version="1.1"><rect x="0" y="0" width="960" height="300" fill="#06040B"></rect><path d="M0 96L22.8 100.2C45.7 104.3 91.3 112.7 137 116.7C182.7 120.7 228.3 120.3 274 113.8C319.7 107.3 365.3 94.7 411.2 95C457 95.3 503 108.7 548.8 112.2C594.7 115.7 640.3 109.3 686 101.3C731.7 93.3 777.3 83.7 823 81.2C868.7 78.7 914.3 83.3 937.2 85.7L960 88L960 0L937.2 0C914.3 0 868.7 0 823 0C777.3 0 731.7 0 686 0C640.3 0 594.7 0 548.8 0C503 0 457 0 411.2 0C365.3 0 319.7 0 274 0C228.3 0 182.7 0 137 0C91.3 0 45.7 0 22.8 0L0 0Z" fill="#4e1592"></path><path d="M0 63L22.8 66.7C45.7 70.3 91.3 77.7 137 81C182.7 84.3 228.3 83.7 274 80C319.7 76.3 365.3 69.7 411.2 65.7C457 61.7 503 60.3 548.8 66.8C594.7 73.3 640.3 87.7 686 89.8C731.7 92 777.3 82 823 76.2C868.7 70.3 914.3 68.7 937.2 67.8L960 67L960 0L937.2 0C914.3 0 868.7 0 823 0C777.3 0 731.7 0 686 0C640.3 0 594.7 0 548.8 0C503 0 457 0 411.2 0C365.3 0 319.7 0 274 0C228.3 0 182.7 0 137 0C91.3 0 45.7 0 22.8 0L0 0Z" fill="#3a1b74"></path><path d="M0 54L22.8 53.2C45.7 52.3 91.3 50.7 137 50.8C182.7 51 228.3 53 274 53.5C319.7 54 365.3 53 411.2 57C457 61 503 70 548.8 68.8C594.7 67.7 640.3 56.3 686 55C731.7 53.7 777.3 62.3 823 63.2C868.7 64 914.3 57 937.2 53.5L960 50L960 0L937.2 0C914.3 0 868.7 0 823 0C777.3 0 731.7 0 686 0C640.3 0 594.7 0 548.8 0C503 0 457 0 411.2 0C365.3 0 319.7 0 274 0C228.3 0 182.7 0 137 0C91.3 0 45.7 0 22.8 0L0 0Z" fill="#2b1b55"></path><path d="M0 28L22.8 31.2C45.7 34.3 91.3 40.7 137 40.8C182.7 41 228.3 35 274 36.3C319.7 37.7 365.3 46.3 411.2 50.2C457 54 503 53 548.8 51.5C594.7 50 640.3 48 686 44C731.7 40 777.3 34 823 32.5C868.7 31 914.3 34 937.2 35.5L960 37L960 0L937.2 0C914.3 0 868.7 0 823 0C777.3 0 731.7 0 686 0C640.3 0 594.7 0 548.8 0C503 0 457 0 411.2 0C365.3 0 319.7 0 274 0C228.3 0 182.7 0 137 0C91.3 0 45.7 0 22.8 0L0 0Z" fill="#1f1837"></path><path d="M0 19L22.8 21.8C45.7 24.7 91.3 30.3 137 30.8C182.7 31.3 228.3 26.7 274 26.3C319.7 26 365.3 30 411.2 29.8C457 29.7 503 25.3 548.8 25.7C594.7 26 640.3 31 686 29.5C731.7 28 777.3 20 823 16C868.7 12 914.3 12 937.2 12L960 12L960 0L937.2 0C914.3 0 868.7 0 823 0C777.3 0 731.7 0 686 0C640.3 0 594.7 0 548.8 0C503 0 457 0 411.2 0C365.3 0 319.7 0 274 0C228.3 0 182.7 0 137 0C91.3 0 45.7 0 22.8 0L0 0Z" fill="#15131a"></path></svg>